<svg width="210" height="25" viewBox="0 0 210 25" fill="none" xmlns="http://www.w3.org/2000/svg">
<path d="M15.5406 23.6789L13.1803 12.4682H13.0742L10.714 23.6789H4.26968L0 5.2709H6.09954L8.1946 15.7057H8.30067L10.3692 5.2709H16.1505L18.3517 15.7057H18.4577L20.4202 5.2709H26.2545L21.9849 23.6789H15.5406Z" fill="#313131"/>
<path d="M44.1545 3.8796L42.1921 1.8194L40.2031 3.8796H36.8086L40.5213 0H43.8893L47.6021 3.8796H44.1545ZM56.0611 16.2676C56.0611 18.7826 55.2743 20.7001 53.7008 22.0201C49.7596 25.3262 34.6584 25.2955 30.7098 22.0201C29.1363 20.7001 28.3496 18.7826 28.3496 16.2676V5.2709H34.2104V16.1873C34.2104 17.2218 34.4845 18.0513 35.0326 18.6756C36.4899 20.2882 47.9118 20.2888 49.3516 18.6488C49.9173 18.0245 50.2002 17.204 50.2002 16.1873V5.2709H56.0611V16.2676Z" fill="#313131"/>
<path d="M73.0339 23.6789L65.3697 14.7425V23.6789H59.9862V5.2709H65.1045L72.7687 14.3411V5.2709H78.1522V23.6789H73.0339Z" fill="#313131"/>
<path d="M89.9802 5.2709C96.3626 5.2709 99.5538 8.33891 99.5538 14.4749C99.5538 20.6109 96.3626 23.6789 89.9802 23.6789H82.0773V5.2709H89.9802ZM87.9382 19.2642H89.8741C92.3316 19.2642 93.5604 17.9353 93.5604 15.2776V13.6722C93.5604 11.0145 92.3316 9.68562 89.8741 9.68562H87.9382V19.2642Z" fill="#313131"/>
<path d="M102.718 5.2709H118.497V9.68562H108.579V12.2274H117.065V16.4548H108.579V19.2642H118.683V23.6789H102.718V5.2709Z" fill="#313131"/>
<path d="M139.174 10.9164C139.174 12.0401 138.874 13.0569 138.273 13.9666C137.672 14.8763 136.796 15.5451 135.647 15.9732L139.705 23.6789H133.128L129.892 16.9632H127.718V23.6789H121.857V5.2709H133.022C134.33 5.2709 135.444 5.52954 136.363 6.04682C137.3 6.54627 137.999 7.233 138.458 8.10702C138.936 8.96321 139.174 9.89966 139.174 10.9164ZM133.207 11.1572C133.207 10.6756 133.048 10.2742 132.73 9.95318C132.412 9.63211 132.023 9.47157 131.563 9.47157H127.718V12.8696H131.563C132.023 12.8696 132.412 12.709 132.73 12.388C133.048 12.0491 133.207 11.6388 133.207 11.1572Z" fill="#313131"/>
<path d="M150.188 19.2642H158.86V23.6789H141.172V21.7793L149.632 9.68562H141.808V5.2709H158.648V7.17057L150.188 19.2642Z" fill="#313131"/>
<path d="M161.902 23.6789V5.2709H167.763V23.6789H161.902Z" fill="#313131"/>
<path d="M184.992 23.6789L177.327 14.7425V23.6789H171.944V5.2709H177.062L184.726 14.3411V5.2709H190.11V23.6789H184.992Z" fill="#313131"/>
<path d="M194.035 5.2709H209.814V9.68562H199.896V12.2274H208.382V16.4548H199.896V19.2642H210V23.6789H194.035V5.2709Z" fill="#313131"/>
</svg>
